<?xml version="1.0" standalone="no"?>
<!DOCTYPE svg PUBLIC "-//W3C//DTD SVG 20010904//EN"
 "http://www.w3.org/TR/2001/REC-SVG-20010904/DTD/svg10.dtd">
<svg version="1.0" xmlns="http://www.w3.org/2000/svg"
 width="512.000000pt" height="512.000000pt" viewBox="0 0 512.000000 512.000000"
 preserveAspectRatio="xMidYMid meet">
<metadata>
Created by potrace 1.11, written by Peter Selinger 2001-2013
</metadata>
<g transform="translate(0.000000,512.000000) scale(0.100000,-0.100000)"
fill="#000000" stroke="none">
<path d="M1505 5113 c-231 -52 -388 -215 -423 -435 -12 -80 -7 -4246 5 -4283
39 -112 74 -174 138 -239 50 -51 142 -109 211 -132 57 -18 100 -19 1124 -19
1024 0 1067 1 1124 19 32 11 84 36 116 56 107 70 170 148 216 270 l28 75 1
2110 c1 1614 -2 2124 -11 2168 -36 174 -167 324 -339 390 l-60 22 -1055 1
c-580 1 -1064 0 -1075 -3z m2143 -136 c62 -24 147 -83 182 -127 17 -21 42 -65
57 -97 24 -51 28 -73 31 -183 l4 -125 -1361 0 -1361 0 0 107 c0 84 5 122 21
170 28 82 87 160 155 205 107 71 62 68 1204 67 915 -1 1030 -3 1068 -17z m270
-2324 l-3 -1668 -1357 -1 -1358 -1 0 1669 0 1668 1360 0 1360 0 -2 -1667z m0
-2012 l-3 -216 -32 -67 c-54 -116 -155 -197 -271 -221 -44 -9 -313 -12 -1073
-11 -1117 1 -1056 -2 -1160 64 -61 40 -110 98 -146 176 -27 58 -28 63 -31 275
l-4 216 1362 0 1361 0 -3 -216z"/>
<path d="M2159 4791 c-54 -54 -32 -140 41 -162 33 -10 43 -9 72 8 65 37 70
130 9 166 -45 26 -88 22 -122 -12z"/>
<path d="M2504 4802 c-51 -41 -57 -97 -16 -143 24 -26 36 -32 72 -32 36 0 48
6 72 32 32 35 35 68 13 112 -26 49 -100 65 -141 31z"/>
<path d="M2832 4795 c-36 -30 -45 -69 -27 -112 13 -31 56 -61 85 -58 8 1 23 3
33 3 33 3 67 51 67 94 0 84 -93 128 -158 73z"/>
<path d="M2256 531 c-10 -4 -24 -18 -31 -31 -11 -20 -11 -29 1 -51 7 -15 21
-29 29 -33 9 -3 150 -6 314 -6 333 0 341 2 341 64 0 60 -2 61 -334 62 -166 1
-309 -2 -320 -5z"/>
</g>
</svg>
