<?xml version="1.0" standalone="no"?>
<!DOCTYPE svg PUBLIC "-//W3C//DTD SVG 20010904//EN"
 "http://www.w3.org/TR/2001/REC-SVG-20010904/DTD/svg10.dtd">
<svg version="1.0" xmlns="http://www.w3.org/2000/svg"
 width="616.000000pt" height="616.000000pt" viewBox="0 0 616.000000 616.000000"
 preserveAspectRatio="xMidYMid meet">
<metadata>
Created by potrace 1.11, written by Peter Selinger 2001-2013
</metadata>
<g transform="translate(0.000000,616.000000) scale(0.100000,-0.100000)"
fill="#000000" stroke="none">
<path d="M2900 4279 c-54 -9 -67 -12 -146 -33 -239 -62 -494 -240 -648 -453
-126 -173 -208 -399 -223 -612 -3 -47 -6 -87 -8 -89 -1 -1 -58 -16 -126 -33
-166 -40 -339 -92 -483 -145 l-118 -43 -37 37 c-256 264 -689 237 -913 -58
-41 -54 -86 -152 -103 -222 -21 -90 -14 -244 14 -328 61 -178 201 -317 384
-382 89 -32 285 -32 374 0 290 103 459 386 404 677 -5 28 -6 54 -2 58 16 16
424 148 501 162 3 1 31 7 62 14 32 7 61 12 65 12 4 0 13 -24 20 -53 15 -59 16
-64 28 -93 5 -11 17 -42 27 -70 50 -130 156 -283 278 -403 144 -142 409 -282
582 -307 24 -4 61 -10 83 -15 39 -9 316 -6 365 3 467 90 825 411 955 857 14
48 28 76 38 78 34 7 537 -141 609 -179 12 -7 15 -17 10 -41 -4 -18 -7 -82 -6
-143 1 -87 6 -124 23 -175 84 -241 299 -401 551 -409 343 -11 619 256 621 601
2 319 -257 587 -577 597 -173 6 -320 -51 -447 -172 l-47 -46 -105 40 c-136 51
-305 102 -479 145 -77 18 -140 35 -141 36 -1 2 -5 46 -9 99 -29 449 -341 861
-774 1024 -39 15 -78 28 -85 29 -6 1 -22 6 -34 10 -89 30 -370 44 -483 25z
m345 -244 c206 -42 365 -125 506 -265 317 -314 377 -794 148 -1175 -252 -418
-786 -580 -1224 -371 -284 134 -479 388 -539 702 -17 93 -13 279 9 374 68 290
265 533 539 661 74 34 207 73 281 82 44 5 245 -1 280 -8z m-2467 -1201 c103
-31 184 -103 230 -203 21 -46 26 -71 27 -141 0 -77 -3 -92 -32 -151 -39 -79
-102 -141 -181 -177 -82 -38 -203 -38 -284 0 -301 140 -279 566 34 668 63 20
146 22 206 4z m4847 -18 c283 -129 281 -523 -4 -654 -81 -38 -202 -38 -283 0
-198 92 -273 325 -164 511 90 153 290 217 451 143z"/>
<path d="M2945 3552 c-282 -83 -425 -402 -299 -669 63 -132 189 -232 332 -262
250 -52 496 95 566 339 21 74 16 226 -11 295 -57 146 -173 255 -319 298 -70
20 -197 20 -269 -1z"/>
</g>
</svg>
